<svg width="50" height="50" viewBox="0 0 50 50" fill="none" xmlns="http://www.w3.org/2000/svg">
<g clip-path="url(#clip0)">
<path d="M47.2401 8.83612e-08H2.75764C1.23444 0.000763028 -0.000381381 1.23634 8.83612e-08 2.75993V47.2424C0.000763028 48.7656 1.23634 50.0004 2.75993 50H47.2401C48.764 50.0004 49.9996 48.7652 50 47.2412C50 47.2408 50 47.2404 50 47.2401V2.75764C49.9992 1.23444 48.7637 -0.000381381 47.2401 8.83612e-08Z" fill="#4267B2"/>
<path d="M34.5215 50.0001V30.6641H41.04L42.0166 23.0958H34.5215V18.2755C34.5215 16.0893 35.1284 14.5997 38.2633 14.5997H42.2363V7.84882C41.5451 7.75688 39.1735 7.55127 36.414 7.55127C30.6522 7.55127 26.709 11.0669 26.709 17.5259V23.0958H20.2148V30.6641H26.709V50.0001H34.5215Z" fill="white"/>
</g>
<defs>
<clipPath id="clip0">
<rect width="50" height="50" fill="white"/>
</clipPath>
</defs>
</svg>
