<svg width="50" height="50" viewBox="0 0 50 50" fill="none" xmlns="http://www.w3.org/2000/svg">
<g clip-path="url(#clip0)">
<path d="M3.12507 3.40196C-0.804097 7.48321 6.92457e-05 11.8186 6.92457e-05 24.9895C6.92457e-05 35.927 -1.90826 46.8916 8.07924 49.4728C11.198 50.2749 38.8313 50.2749 41.9459 49.4686C46.1042 48.3957 49.4876 45.0228 49.9501 39.1416C50.0146 38.3207 50.0146 11.6728 49.948 10.8353C49.4563 4.57071 45.6001 0.96029 40.5188 0.22904C39.3542 0.0602896 39.1209 0.0102896 33.1459 -0.000127114C11.9522 0.0102896 7.30632 -0.933461 3.12507 3.40196Z" fill="url(#paint0_linear)"/>
<path d="M24.9959 6.53979C17.4313 6.53979 10.2479 5.86687 7.50419 12.9085C6.37085 15.8169 6.53544 19.594 6.53544 25.0023C6.53544 29.7481 6.38335 34.2085 7.50419 37.094C10.2417 44.1398 17.4834 43.4648 24.9917 43.4648C32.2354 43.4648 39.7042 44.2189 42.4813 37.094C43.6167 34.1565 43.45 30.4356 43.45 25.0023C43.45 17.7898 43.8479 13.1335 40.35 9.63771C36.8084 6.09604 32.0188 6.53979 24.9875 6.53979H24.9959ZM23.3417 9.86687C39.1209 9.84187 41.1292 8.08771 40.0209 32.4565C39.6271 41.0752 33.0646 40.1294 24.9979 40.1294C10.2896 40.1294 9.86669 39.7085 9.86669 24.994C9.86669 10.1085 11.0334 9.87521 23.3417 9.86271V9.86687ZM34.85 12.9315C33.6271 12.9315 32.6354 13.9231 32.6354 15.146C32.6354 16.369 33.6271 17.3606 34.85 17.3606C36.0729 17.3606 37.0646 16.369 37.0646 15.146C37.0646 13.9231 36.0729 12.9315 34.85 12.9315ZM24.9959 15.521C19.7604 15.521 15.5167 19.7669 15.5167 25.0023C15.5167 30.2377 19.7604 34.4815 24.9959 34.4815C30.2313 34.4815 34.4729 30.2377 34.4729 25.0023C34.4729 19.7669 30.2313 15.521 24.9959 15.521ZM24.9959 18.8481C33.1313 18.8481 33.1417 31.1565 24.9959 31.1565C16.8625 31.1565 16.85 18.8481 24.9959 18.8481Z" fill="white"/>
</g>
<defs>
<linearGradient id="paint0_linear" x1="3.22094" y1="46.8063" x2="49.6907" y2="6.58734" gradientUnits="userSpaceOnUse">
<stop stop-color="#FFDD55"/>
<stop offset="0.5" stop-color="#FF543E"/>
<stop offset="1" stop-color="#C837AB"/>
</linearGradient>
<clipPath id="clip0">
<rect width="50" height="50" fill="white"/>
</clipPath>
</defs>
</svg>
