<svg width="48" height="50" viewBox="0 0 48 50" fill="none" xmlns="http://www.w3.org/2000/svg">
<path d="M24 2.14844C10.7861 2.14844 0.0742188 12.8604 0.0742188 26.0742C0.0742188 37.3716 7.90488 46.8388 18.4341 49.3477H29.5659C40.0951 46.8388 47.9258 37.3716 47.9258 26.0742C47.9258 12.8604 37.2139 2.14844 24 2.14844Z" fill="#994334"/>
<path d="M24 48.0469C33.7081 48.0469 41.5781 40.1769 41.5781 30.4688C41.5781 20.7606 33.7081 12.8906 24 12.8906C14.2919 12.8906 6.42188 20.7606 6.42188 30.4688C6.42188 40.1769 14.2919 48.0469 24 48.0469Z" fill="#82362B"/>
<path d="M43.0859 11.6436V11.6445L29.5713 49.3477C27.7842 49.7744 25.918 50 24 50C22.082 50 20.2158 49.7744 18.4287 49.3477L4.91406 11.6445V11.6436L6.12012 6.92481L11.0908 5.92676L24 3.33496L36.9092 5.92676L41.8799 6.92481L43.0859 11.6436Z" fill="#FFD00D"/>
<path d="M11.9235 8.82891L12.2335 5.69727L11.0908 5.92676L6.12012 6.92481L4.91406 11.6436V11.6445L18.4287 49.3477C20.2158 49.7744 22.082 50 24 50C25.918 50 27.7842 49.7744 29.5713 49.3477L32.5503 41.0367C23.1617 35.3312 15.8114 20.535 11.9235 8.82891Z" fill="#FFAF10"/>
<path d="M35.8171 10.8984C36.3043 11.1298 36.5116 11.7124 36.2802 12.1995C35.8861 13.0291 34.7045 13.2407 34.7045 13.2407C34.7045 13.2407 34.1219 12.1911 34.5159 11.3615C34.7474 10.8744 35.33 10.667 35.8171 10.8984Z" fill="#159E97"/>
<path d="M23.5735 31.5922C24.3195 31.9466 24.6371 32.8387 24.2827 33.5847C23.6793 34.855 21.8697 35.1791 21.8697 35.1791C21.8697 35.1791 20.9776 33.5718 21.5811 32.3014C21.9355 31.5554 22.8275 31.2379 23.5735 31.5922Z" fill="#159E97"/>
<path d="M0.0742188 8.71025C0.0742188 11.1877 2.69385 12.7816 4.89844 11.6516C10.739 8.65762 17.2474 7.07178 24 7.07178C30.7526 7.07178 37.261 8.65762 43.1016 11.6516C45.3062 12.7816 47.9258 11.1877 47.9258 8.71025C47.9258 7.05791 46.9765 5.55176 45.4849 4.84082C38.9759 1.73799 31.6912 0 24 0C16.3088 0 9.02412 1.73799 2.51514 4.84072C1.02354 5.55176 0.0742188 7.05791 0.0742188 8.71025Z" fill="#EF8318"/>
<path d="M8.08203 6.25C7.56992 4.46035 8.51191 2.59922 10.2072 1.92822C7.5457 2.69082 4.9749 3.66816 2.51504 4.84072C1.02354 5.55176 0.0742188 7.05791 0.0742188 8.71025C0.0742188 11.1877 2.69385 12.7816 4.89844 11.6516C7.14893 10.4979 9.49893 9.5543 11.9235 8.829C10.2161 9.01865 8.57051 7.95703 8.08203 6.25Z" fill="#DB722C"/>
<path d="M16.012 20.4957C18.169 20.4957 19.9176 18.7471 19.9176 16.5901C19.9176 14.4332 18.169 12.6846 16.012 12.6846C13.855 12.6846 12.1064 14.4332 12.1064 16.5901C12.1064 18.7471 13.855 20.4957 16.012 20.4957Z" fill="#FE3745"/>
<path d="M14.458 18.5433C13.3795 16.6753 14.0195 14.2866 15.8876 13.2081C16.2199 13.0162 16.5688 12.8798 16.9238 12.794C15.9848 12.5683 14.9614 12.6872 14.0592 13.2081C12.1911 14.2866 11.5512 16.6752 12.6296 18.5433C13.5162 20.079 15.2882 20.7837 16.9285 20.387C15.9235 20.1454 15.0155 19.509 14.458 18.5433Z" fill="#EA2A3D"/>
<path d="M16.012 15.4185C16.4165 15.4185 16.7444 15.0905 16.7444 14.686C16.7444 14.2815 16.4165 13.9536 16.012 13.9536C15.6075 13.9536 15.2795 14.2815 15.2795 14.686C15.2795 15.0905 15.6075 15.4185 16.012 15.4185Z" fill="#EA2A3D"/>
<path d="M17.6611 18.2749C18.0656 18.2749 18.3936 17.947 18.3936 17.5425C18.3936 17.138 18.0656 16.8101 17.6611 16.8101C17.2566 16.8101 16.9287 17.138 16.9287 17.5425C16.9287 17.947 17.2566 18.2749 17.6611 18.2749Z" fill="#EA2A3D"/>
<path d="M14.3628 18.2749C14.7673 18.2749 15.0952 17.947 15.0952 17.5425C15.0952 17.138 14.7673 16.8101 14.3628 16.8101C13.9583 16.8101 13.6304 17.138 13.6304 17.5425C13.6304 17.947 13.9583 18.2749 14.3628 18.2749Z" fill="#EA2A3D"/>
<path d="M18.2911 47.1085C20.4481 47.1085 22.1966 45.3599 22.1966 43.2029C22.1966 41.0459 20.4481 39.2974 18.2911 39.2974C16.1341 39.2974 14.3855 41.0459 14.3855 43.2029C14.3855 45.3599 16.1341 47.1085 18.2911 47.1085Z" fill="#FE3745"/>
<path d="M16.7368 45.1561C15.6583 43.2881 16.2983 40.8994 18.1664 39.8209C18.4987 39.629 18.8476 39.4926 19.2026 39.4068C18.2637 39.1811 17.2402 39.3 16.338 39.8209C14.4699 40.8994 13.83 43.288 14.9084 45.1561C15.795 46.6918 17.567 47.3965 19.2073 46.9998C18.2023 46.7582 17.2944 46.1218 16.7368 45.1561Z" fill="#EA2A3D"/>
<path d="M18.2908 42.0312C18.6953 42.0312 19.0232 41.7033 19.0232 41.2988C19.0232 40.8943 18.6953 40.5664 18.2908 40.5664C17.8863 40.5664 17.5583 40.8943 17.5583 41.2988C17.5583 41.7033 17.8863 42.0312 18.2908 42.0312Z" fill="#EA2A3D"/>
<path d="M19.9399 44.8877C20.3444 44.8877 20.6724 44.5598 20.6724 44.1553C20.6724 43.7508 20.3444 43.4229 19.9399 43.4229C19.5354 43.4229 19.2075 43.7508 19.2075 44.1553C19.2075 44.5598 19.5354 44.8877 19.9399 44.8877Z" fill="#EA2A3D"/>
<path d="M16.6416 44.8877C17.0461 44.8877 17.374 44.5598 17.374 44.1553C17.374 43.7508 17.0461 43.4229 16.6416 43.4229C16.2371 43.4229 15.9092 43.7508 15.9092 44.1553C15.9092 44.5598 16.2371 44.8877 16.6416 44.8877Z" fill="#EA2A3D"/>
<path d="M38.3069 22.4703C40.4639 22.4703 42.2125 20.7217 42.2125 18.5647C42.2125 16.4078 40.4639 14.6592 38.3069 14.6592C36.1499 14.6592 34.4014 16.4078 34.4014 18.5647C34.4014 20.7217 36.1499 22.4703 38.3069 22.4703Z" fill="#FE3745"/>
<path d="M36.7529 20.5184C35.6744 18.6504 36.3144 16.2617 38.1825 15.1832C38.5148 14.9913 38.8638 14.8549 39.2187 14.7691C38.2798 14.5434 37.2563 14.6623 36.3541 15.1832C34.486 16.2617 33.8461 18.6503 34.9245 20.5184C35.8111 22.0541 37.5831 22.7588 39.2234 22.3621C38.2184 22.1206 37.3104 21.4841 36.7529 20.5184Z" fill="#EA2A3D"/>
<path d="M38.3066 17.3931C38.7111 17.3931 39.0391 17.0652 39.0391 16.6606C39.0391 16.2561 38.7111 15.9282 38.3066 15.9282C37.9021 15.9282 37.5742 16.2561 37.5742 16.6606C37.5742 17.0652 37.9021 17.3931 38.3066 17.3931Z" fill="#EA2A3D"/>
<path d="M39.9561 20.2495C40.3606 20.2495 40.6885 19.9216 40.6885 19.5171C40.6885 19.1126 40.3606 18.7847 39.9561 18.7847C39.5515 18.7847 39.2236 19.1126 39.2236 19.5171C39.2236 19.9216 39.5515 20.2495 39.9561 20.2495Z" fill="#EA2A3D"/>
<path d="M36.6577 20.2495C37.0622 20.2495 37.3901 19.9216 37.3901 19.5171C37.3901 19.1126 37.0622 18.7847 36.6577 18.7847C36.2532 18.7847 35.9253 19.1126 35.9253 19.5171C35.9253 19.9216 36.2532 20.2495 36.6577 20.2495Z" fill="#EA2A3D"/>
<path d="M31.3208 37.0957C34.0175 37.0957 36.2036 34.9096 36.2036 32.2129C36.2036 29.5162 34.0175 27.3301 31.3208 27.3301C28.6241 27.3301 26.438 29.5162 26.438 32.2129C26.438 34.9096 28.6241 37.0957 31.3208 37.0957Z" fill="#FE3745"/>
<path d="M28.7638 32.2129C28.7638 29.9171 30.3486 27.9924 32.4837 27.4705C32.1108 27.3794 31.7217 27.3301 31.3208 27.3301C28.6241 27.3301 26.438 29.5162 26.438 32.2129C26.438 34.9096 28.6241 37.0957 31.3208 37.0957C31.7217 37.0957 32.1108 37.0464 32.4837 36.9553C30.3486 36.4334 28.7638 34.5087 28.7638 32.2129Z" fill="#EA2A3D"/>
<path d="M31.3208 30.2598C31.7253 30.2598 32.0532 29.9318 32.0532 29.5273C32.0532 29.1228 31.7253 28.7949 31.3208 28.7949C30.9163 28.7949 30.5884 29.1228 30.5884 29.5273C30.5884 29.9318 30.9163 30.2598 31.3208 30.2598Z" fill="#EA2A3D"/>
<path d="M33.6465 34.2881C34.051 34.2881 34.3789 33.9602 34.3789 33.5557C34.3789 33.1512 34.051 32.8232 33.6465 32.8232C33.242 32.8232 32.9141 33.1512 32.9141 33.5557C32.9141 33.9602 33.242 34.2881 33.6465 34.2881Z" fill="#EA2A3D"/>
<path d="M28.9951 34.2881C29.3996 34.2881 29.7275 33.9602 29.7275 33.5557C29.7275 33.1512 29.3996 32.8232 28.9951 32.8232C28.5906 32.8232 28.2627 33.1512 28.2627 33.5557C28.2627 33.9602 28.5906 34.2881 28.9951 34.2881Z" fill="#EA2A3D"/>
<path d="M23.5903 25.7538C24.0764 26.0521 24.7228 25.7911 24.8453 25.2343C25.144 23.8775 24.5738 22.4217 23.3229 21.6541C22.0721 20.8865 20.516 21.0372 19.4415 21.918C19.0005 22.2795 19.0605 22.974 19.5466 23.2722L20.621 23.9316L19.3323 25.0663C18.9089 25.4392 18.967 26.1154 19.4478 26.4105L20.8369 27.2629C21.3178 27.558 21.947 27.3036 22.0877 26.7573L22.5159 25.0946L23.5903 25.7538Z" fill="#BF7E52"/>
<path d="M27.1181 38.7238C27.4781 38.5471 27.566 38.0648 27.281 37.7825C26.5868 37.0949 25.507 36.8867 24.5805 37.3417C23.6541 37.7967 23.1587 38.7784 23.2784 39.7483C23.3275 40.1463 23.7629 40.3717 24.1229 40.1948L24.9188 39.804L25.109 40.9966C25.1715 41.3885 25.5952 41.6081 25.9514 41.4331L26.9803 40.9279C27.3365 40.7529 27.4219 40.2833 27.15 39.9943L26.3224 39.1147L27.1181 38.7238Z" fill="#BF7E52"/>
<path d="M23.1716 16.6523C23.0022 16.6523 22.8319 16.5939 22.6936 16.4745C22.3872 16.2104 22.353 15.748 22.6171 15.4415C22.8142 15.2131 22.901 14.9226 22.862 14.6236C22.823 14.3245 22.6643 14.0661 22.4152 13.8959C21.8259 13.4933 21.4349 12.8565 21.3424 12.1488C21.2499 11.4409 21.4641 10.7249 21.9302 10.1844C22.1944 9.87786 22.6568 9.84388 22.9632 10.1078C23.2695 10.372 23.3037 10.8344 23.0397 11.1408C22.8427 11.3693 22.7558 11.6598 22.7948 11.9589C22.8339 12.2579 22.9926 12.5163 23.2415 12.6864C23.831 13.0891 24.222 13.7259 24.3145 14.4337C24.4069 15.1415 24.1927 15.8574 23.7265 16.3981C23.5818 16.5661 23.3772 16.6523 23.1716 16.6523Z" fill="#159E97"/>
<path d="M26.9722 47.8446C26.5836 47.8446 26.2598 47.5392 26.2412 47.1469C26.2328 46.9715 26.1334 46.8656 26.0748 46.818C26.0162 46.7706 25.8927 46.6953 25.7188 46.7229C25.1807 46.8095 24.6297 46.6624 24.2067 46.3191C23.7836 45.9758 23.526 45.4668 23.5001 44.9225C23.4809 44.5185 23.7927 44.1754 24.1968 44.156C24.6031 44.1379 24.944 44.4488 24.9633 44.8527C24.9717 45.0282 25.0711 45.1342 25.1297 45.1816C25.1884 45.2292 25.3123 45.3046 25.4858 45.2767C26.0241 45.1897 26.5748 45.3372 26.998 45.6805C27.421 46.0239 27.6786 46.533 27.7044 47.0773C27.7236 47.4813 27.4117 47.8245 27.0076 47.8437C26.9957 47.8443 26.9839 47.8446 26.9722 47.8446Z" fill="#159E97"/>
<path d="M13.3145 28.4049C12.9852 28.4049 12.6859 28.1812 12.6039 27.8472C12.5073 27.4544 12.7474 27.0576 13.1402 26.961C13.3633 26.9061 13.5456 26.7642 13.6534 26.5613C13.7612 26.3585 13.7767 26.128 13.6971 25.9125C13.4748 25.3091 13.5202 24.6373 13.8217 24.0694C14.1233 23.5016 14.6545 23.0879 15.2789 22.9345C15.6713 22.8378 16.0684 23.0781 16.1649 23.4709C16.2614 23.8637 16.0213 24.2603 15.6285 24.3569C15.4054 24.4118 15.2232 24.5537 15.1154 24.7565C15.0076 24.9595 14.992 25.1899 15.0716 25.4056C15.2939 26.0087 15.2486 26.6804 14.9471 27.2482C14.6455 27.8161 14.1144 28.2299 13.49 28.3835C13.4312 28.3978 13.3724 28.4049 13.3145 28.4049Z" fill="#159E97"/>
<path d="M19.1539 36.1601L17.6143 36.8707C17.4354 36.9532 17.2235 36.8752 17.141 36.6964L16.4304 35.1567C16.3478 34.9779 16.4259 34.766 16.6047 34.6835L18.1443 33.9728C18.3231 33.8903 18.5351 33.9684 18.6176 34.1472L19.3282 35.6868C19.4107 35.8656 19.3327 36.0774 19.1539 36.1601Z" fill="#FE3745"/>
<path d="M32.6053 23.0665L31.2569 24.9566C31.1003 25.1762 30.7954 25.2272 30.5759 25.0706L28.6857 23.7223C28.4662 23.5656 28.4151 23.2607 28.5718 23.0412L29.92 21.1511C30.0767 20.9315 30.3815 20.8805 30.6011 21.0371L32.4912 22.3854C32.7108 22.5421 32.7618 22.847 32.6053 23.0665Z" fill="#FE3745"/>
<path d="M21.914 26.7575L21.9856 26.4794C21.0826 25.2479 20.5504 21.7994 21.6626 21.1692C20.8043 21.1011 19.9414 21.3661 19.2679 21.9182C18.8269 22.2797 18.887 22.9742 19.373 23.2724L20.4474 23.9318L19.1587 25.0665C18.7353 25.4394 18.7934 26.1156 19.2743 26.4107L20.6633 27.2631C21.1442 27.5582 21.7734 27.3039 21.914 26.7575Z" fill="#A86639"/>
<path d="M25.109 40.9964C25.1715 41.3882 25.5953 41.6078 25.9515 41.4329L26.9804 40.9276C27.3099 40.7658 27.407 40.3521 27.2045 40.0622C25.4407 40.0131 24.376 38.4312 23.9978 37.7476C23.4548 38.2621 23.1873 39.0081 23.2786 39.7479C23.3277 40.146 23.763 40.3714 24.1231 40.1945L24.919 39.8037L25.109 40.9964Z" fill="#A86639"/>
<path d="M31.2234 14.6228C31.5833 14.446 31.6712 13.9637 31.3863 13.6815C30.692 12.9939 29.6122 12.7857 28.6858 13.2406C27.7593 13.6956 27.2639 14.6774 27.3836 15.6472C27.4327 16.0452 27.8681 16.2706 28.2282 16.0938L29.0241 15.7029L29.2142 16.8955C29.2767 17.2874 29.7004 17.507 30.0567 17.332L31.0856 16.8268C31.4417 16.6519 31.5271 16.1822 31.2552 15.8932L30.4277 15.0136L31.2234 14.6228Z" fill="#BF7E52"/>
<path d="M29.2143 16.8953C29.2768 17.2871 29.7005 17.5067 30.0567 17.3318L31.0856 16.8266C31.4151 16.6647 31.5122 16.2511 31.3098 15.9611C29.5459 15.912 28.4812 14.3301 28.103 13.6465C27.5601 14.161 27.2926 14.907 27.3838 15.6469C27.4329 16.0449 27.8683 16.2703 28.2283 16.0935L29.0242 15.7026L29.2143 16.8953Z" fill="#A86639"/>
<path d="M29.4609 11.1641C30.0003 11.1641 30.4375 10.7268 30.4375 10.1875C30.4375 9.64816 30.0003 9.21094 29.4609 9.21094C28.9216 9.21094 28.4844 9.64816 28.4844 10.1875C28.4844 10.7268 28.9216 11.1641 29.4609 11.1641Z" fill="#FFAF10"/>
<path d="M26.3323 21.2261C26.8716 21.2261 27.3088 20.7889 27.3088 20.2495C27.3088 19.7102 26.8716 19.2729 26.3323 19.2729C25.7929 19.2729 25.3557 19.7102 25.3557 20.2495C25.3557 20.7889 25.7929 21.2261 26.3323 21.2261Z" fill="#FFAF10"/>
<path d="M23.6033 19.5166C24.0078 19.5166 24.3357 19.1887 24.3357 18.7842C24.3357 18.3797 24.0078 18.0518 23.6033 18.0518C23.1988 18.0518 22.8708 18.3797 22.8708 18.7842C22.8708 19.1887 23.1988 19.5166 23.6033 19.5166Z" fill="#FFAF10"/>
<path d="M39.4817 13.9731C39.8862 13.9731 40.2141 13.6452 40.2141 13.2407C40.2141 12.8362 39.8862 12.5083 39.4817 12.5083C39.0772 12.5083 38.7493 12.8362 38.7493 13.2407C38.7493 13.6452 39.0772 13.9731 39.4817 13.9731Z" fill="#FFAF10"/>
<path d="M26.438 12.2686C26.8425 12.2686 27.1704 11.9406 27.1704 11.5361C27.1704 11.1316 26.8425 10.8037 26.438 10.8037C26.0335 10.8037 25.7056 11.1316 25.7056 11.5361C25.7056 11.9406 26.0335 12.2686 26.438 12.2686Z" fill="#FFAF10"/>
<path d="M8.77588 16.8096C9.18038 16.8096 9.5083 16.4817 9.5083 16.0771C9.5083 15.6726 9.18038 15.3447 8.77588 15.3447C8.37137 15.3447 8.04346 15.6726 8.04346 16.0771C8.04346 16.4817 8.37137 16.8096 8.77588 16.8096Z" fill="#EF8318"/>
<path d="M17.5581 30.2598C17.9626 30.2598 18.2905 29.9318 18.2905 29.5273C18.2905 29.1228 17.9626 28.7949 17.5581 28.7949C17.1536 28.7949 16.8257 29.1228 16.8257 29.5273C16.8257 29.9318 17.1536 30.2598 17.5581 30.2598Z" fill="#EF8318"/>
<path d="M22.8284 48.8101C23.2329 48.8101 23.5608 48.4821 23.5608 48.0776C23.5608 47.6731 23.2329 47.3452 22.8284 47.3452C22.4239 47.3452 22.0959 47.6731 22.0959 48.0776C22.0959 48.4821 22.4239 48.8101 22.8284 48.8101Z" fill="#EF8318"/>
<path d="M16.9885 10.9531C17.5279 10.9531 17.9651 10.5159 17.9651 9.97656C17.9651 9.43722 17.5279 9 16.9885 9C16.4492 9 16.012 9.43722 16.012 9.97656C16.012 10.5159 16.4492 10.9531 16.9885 10.9531Z" fill="#FFAF10"/>
<path d="M9.5083 14.2173C10.0476 14.2173 10.4849 13.7801 10.4849 13.2407C10.4849 12.7014 10.0476 12.2642 9.5083 12.2642C8.96896 12.2642 8.53174 12.7014 8.53174 13.2407C8.53174 13.7801 8.96896 14.2173 9.5083 14.2173Z" fill="#EF8318"/>
<path d="M11.6558 23.4478C12.1951 23.4478 12.6323 23.0105 12.6323 22.4712C12.6323 21.9319 12.1951 21.4946 11.6558 21.4946C11.1164 21.4946 10.6792 21.9319 10.6792 22.4712C10.6792 23.0105 11.1164 23.4478 11.6558 23.4478Z" fill="#EF8318"/>
<path d="M35.377 26.1587C35.9163 26.1587 36.3535 25.7215 36.3535 25.1821C36.3535 24.6428 35.9163 24.2056 35.377 24.2056C34.8376 24.2056 34.4004 24.6428 34.4004 25.1821C34.4004 25.7215 34.8376 26.1587 35.377 26.1587Z" fill="#FFAF10"/>
<path d="M24.6255 29.5273C25.1648 29.5273 25.6021 29.0901 25.6021 28.5508C25.6021 28.0114 25.1648 27.5742 24.6255 27.5742C24.0861 27.5742 23.6489 28.0114 23.6489 28.5508C23.6489 29.0901 24.0861 29.5273 24.6255 29.5273Z" fill="#FFAF10"/>
<path d="M28.9954 44.3989C29.5347 44.3989 29.9719 43.9617 29.9719 43.4224C29.9719 42.883 29.5347 42.4458 28.9954 42.4458C28.456 42.4458 28.0188 42.883 28.0188 43.4224C28.0188 43.9617 28.456 44.3989 28.9954 44.3989Z" fill="#EF8318"/>
<path d="M15.4536 33.1895C15.993 33.1895 16.4302 32.7522 16.4302 32.2129C16.4302 31.6736 15.993 31.2363 15.4536 31.2363C14.9143 31.2363 14.4771 31.6736 14.4771 32.2129C14.4771 32.7522 14.9143 33.1895 15.4536 33.1895Z" fill="#EF8318"/>
</svg>